{"title":"The Hobbit The Desolation of Smaug 2013 CAM AC3 MURDER","uid":9352486,"size":912648054,"categoryP":"video","categoryS":"movies","magnet":"?xt=urn:btih:0f05c4316427fb9b72d9fe7fdb2aa3f0585b7221&amp;dn=The+Hobbit+The+Desolation+of+Smaug+2013+CAM+AC3+MURDER&amp;tr=udp%3A%2F%2Ftracker.openbittorrent.com%3A80&amp;tr=udp%3A%2F%2Fopen.demonii.com%3A1337&amp;tr=udp%3A%2F%2Ftracker.coppersurfer.tk%3A6969&amp;tr=udp%3A%2F%2Fexodus.desync.com%3A6969","seeders":1,"leechers":0,"uploader":"darkj6","files":-1,"time":1387162497,"description":" ______   _______  ______    ___   _      ___  --------|\n|      | |   _   ||    _ |  |   | | |    |   ||   |----|    \n|  _    ||  |_|  ||   | ||  |   |_| |    |   ||   |___ \n| | |   ||       ||   |_||_ |      _|    |   ||    _  |\n| |_|   ||       ||    __  ||     |_  ___|   ||   | | |\n|       ||   _   ||   |  | ||    _  ||       ||   |_| |\n|______| |__| |__||___|  |_||___| |_||_______||_______|\n\n\nComplete name                            : TThe Hobbit The Desolation of Smaug 2013 CAM  AC3 MURDER\nFormat                                   : Matroska\nFormat version                           : Version 4 / Version 2\nFile size                                : 869 MiB\nDuration                                 : 2h 29mn\nOverall bit rate                         : 815 Kbps\nEncoded date                             : UTC 2013-12-15 15:56:59\nWriting application                      : mkvmerge v6.3.0 ('You can't stop me!'wink.gif built on Jun 28 2013 20:09:41\nWriting library                          : libebml v1.3.0 + libmatroska v1.4.0\n\nVideo\nID                                       : 1\nFormat                                   : MPEG-4 Visual\nFormat profile                           : Simple@L3\nFormat settings, BVOP                    : No\nFormat settings, QPel                    : No\nFormat settings, GMC                     : No warppoints\nFormat settings, Matrix                  : Default (H.263)\nCodec ID                                 : V_MS/VFW/FOURCC / FMP4\nDuration                                 : 2h 29mn\nBit rate                                 : 607 Kbps\nWidth                                    : 608 pixels\nHeight                                   : 320 pixels\nDisplay aspect ratio                     : 1.900\nFrame rate mode                          : Constant\nFrame rate                               : 23.976 fps\nColor space                              : YUV\nChroma subsampling                       : 4:2:0\nBit depth                                : 8 bits\nScan type                                : Progressive\nCompression mode                         : Lossy\nBits/(Pixel*Frame)                       : 0.130\nStream size                              : 647 MiB (74%)\nWriting library                          : ZJMedia MPEG Encoder\nDefault                                  : Yes\nForced                                   : No\n\nAudio\nID                                       : 2\nFormat                                   : AC-3\nFormat/Info                              : Audio Coding 3\nMode extension                           : CM (complete main)\nFormat settings, Endianness              : Big\nCodec ID                                 : A_AC3\nDuration                                 : 2h 29mn\nBit rate mode                            : Constant\nBit rate                                 : 192 Kbps\nChannel(s)                               : 2 channels\nChannel positions                        : Front: L R\nSampling rate                            : 44.1 KHz\nBit depth                                : 16 bits\nCompression mode                         : Lossy\nStream size                              : 205 MiB (24%)\nDefault                                  : Yes\nForced                                   : No\n &lt;a href=&quot;\nhttp://s20.postimg.org/te6n2b69p/vlcsnap_2013_12_15_15h58m36s159.png&quot; rel=&quot;nofollow&quot; target=&quot;_NEW&quot;&gt;\nhttp://s20.postimg.org/te6n2b69p/vlcsnap_2013_12_15_15h58m36s159.png&lt;/a&gt;\n\n &lt;a href=&quot;\nhttp://s20.postimg.org/pvz8jnurh/vlcsnap_2013_12_15_15h58m57s111.png&quot; rel=&quot;nofollow&quot; target=&quot;_NEW&quot;&gt;\nhttp://s20.postimg.org/pvz8jnurh/vlcsnap_2013_12_15_15h58m57s111.png&lt;/a&gt;\n\n &lt;a href=&quot;\nhttp://s20.postimg.org/dimecr531/vlcsnap_2013_12_15_15h59m03s176.png&quot; rel=&quot;nofollow&quot; target=&quot;_NEW&quot;&gt;\nhttp://s20.postimg.org/dimecr531/vlcsnap_2013_12_15_15h59m03s176.png&lt;/a&gt;\n\n &lt;a href=&quot;\nhttp://s20.postimg.org/ow8xnyflp/vlcsnap_2013_12_15_15h59m10s239.png&quot; rel=&quot;nofollow&quot; target=&quot;_NEW&quot;&gt;\nhttp://s20.postimg.org/ow8xnyflp/vlcsnap_2013_12_15_15h59m10s239.png&lt;/a&gt;\n\n &lt;a href=&quot;\nhttp://s20.postimg.org/xsjprw67x/vlcsnap_2013_12_15_15h59m13s15.png&quot; rel=&quot;nofollow&quot; target=&quot;_NEW&quot;&gt;\nhttp://s20.postimg.org/xsjprw67x/vlcsnap_2013_12_15_15h59m13s15.png&lt;/a&gt;\n\n\n________________$$$$\n______________$$____$$\n______________$$____$$\n______________$$____$$\n______________$$____$$\n______________$$____$$\n__________$$$$$$____$$$$$$\n________$$____$$____$$____$$$$\n________$$____$$____$$____$$__$$\n$$$$$$__$$____$$____$$____$$____$$\n$$____$$$$________________$$____$$\n$$______$$______________________$$\n__$$____$$______________________$$\n___$$$__$$______________________$$\n____$$__________________________$$\n_____$$$________________________$$\n______$$______________________$$$\n_______$$$____________________$$\n________$$____________________$$\n_________$$$________________$$$\n__________$$________________$$\n__________$$$$$$$$$$$$$$$$$$$$","torrent":{"xt":"urn:btih:0f05c4316427fb9b72d9fe7fdb2aa3f0585b7221","amp;dn":"The+Hobbit+The+Desolation+of+Smaug+2013+CAM+AC3+MURDER","amp;tr":["udp%3A%2F%2Ftracker.openbittorrent.com%3A80","udp%3A%2F%2Fopen.demonii.com%3A1337","udp%3A%2F%2Ftracker.coppersurfer.tk%3A6969","udp%3A%2F%2Fexodus.desync.com%3A6969"],"infoHash":"0f05c4316427fb9b72d9fe7fdb2aa3f0585b7221","infoHashBuffer":{"type":"Buffer","data":[15,5,196,49,100,39,251,155,114,217,254,127,219,42,163,240,88,91,114,33]},"announce":[],"urlList":[]}}